<?xml version="1.0" encoding="UTF-8"?><svg id="Layer_2" xmlns="http://www.w3.org/2000/svg" viewBox="0 0 1109.52 1559.15"><defs><style>.cls-1{fill:#fdfd00;}.cls-1,.cls-2,.cls-3,.cls-4,.cls-5,.cls-6{stroke-width:0px;}.cls-2{fill:#f3f0e9;}.cls-3{fill:#c7fe00;}.cls-4{fill:#121212;}.cls-5{fill:#141412;}.cls-6{fill:#121312;}</style></defs><g id="Layer_1-2"><path class="cls-2" d="M558.93,1559.1c-91.86-4.01-183.43-10.63-271.1-41.59-119.72-42.28-204.4-122.88-248.72-241.33C11.37,1202.06-.48,1123.67,2.99,1043.74c.53-12.27-.03-24.67-1.1-36.92-6.18-70.74,27.25-116.93,96.4-133.65,12.9-3.12,31.38,1.03,37.42-10.2,5.54-10.3.98-26.41-.16-39.87-4.88-57.89-4.63-115.92-5-173.93-.05-8.55-1.98-14.6-8.89-20.64-37.54-32.82-67.17-71.14-87.39-117.57-11.2-25.74-25.37-50.27-20.79-78.79,3.55-22.09-.79-41.14-7.55-61.9-23.6-72.5,25.71-142.06,101.72-146.09,6.16-.33,12.67-1.88,18.44-.48,36.11,8.76,59.39-3.68,78.24-36.56,45.42-79.23,119.55-121.01,203.86-148.65,135.33-44.36,271.99-52.35,409.45-13.61,116.72,32.89,197.97,110.03,250.2,217.28,23.65,48.56,25,103.76,34.26,156.41,15.39,87.43,2.51,174.74-.86,262.16-3.05,78.93-4.09,157.94-1.06,236.95,1.4,36.42-4.04,72.66-5.41,108.99-3.38,90.13-16.74,179.1-37.14,266.44-24.62,105.37-91.54,178.49-188.31,226.2-49,24.16-98.39,46.69-153.31,50.29-52.3,3.43-104.47,10.18-157.11,9.49Z"/><path class="cls-4" d="M175.23,324.32c19.13,0,38.27-.48,57.37.21,9.08.32,12.86-2.91,15.58-11.47,27.08-85.17,82.31-142.74,166.44-174.75,107.77-40.99,218.42-50.7,331.03-32.12,108.87,17.96,189.73,78.29,234.82,179.29,21.04,47.13,22.29,100.68,29.14,151.92,8,59.85.72,119.4-3.04,179.15-6.72,106.65-3.23,213.51-3.96,320.29-.29,42.51-1.73,85.72-7.97,127.22-8.77,58.35-12.97,117.63-26.98,175.11-19.33,79.28-67.32,133.37-139.53,173.41-86.95,48.22-180.18,47.2-273.16,48.71-80.76,1.31-161.53-7.85-238.25-36.3-114.19-42.35-180.89-124.91-204.04-244.1-8.86-45.6-15.55-91.09-12.94-137.74.92-16.55-.28-33.35-2.1-49.87-1.51-13.72,3.76-20.63,16.55-23.96,30.56-7.95,62.14-9.31,93.07-14.84,6.67-1.19,13.33-2.92,20.05-3.28,8.45-.46,9.7-4.81,9.44-12.15-4.11-118.41-11.81-236.72-10.49-355.29.12-10.83-2.87-14.9-14.15-15.86-13.09-1.11-23.84-8.98-33.95-17.46-33.23-27.88-49.79-66.63-67.81-104.25-6.14-12.82,1.47-20.98,18.13-21.68,29.6-1.24,59.2-2.67,88.82-3.05,12.31-.16,17.18-4.16,18.31-16.95,4.02-45.41,4.49-45.23-41.67-45.54-25.3-.17-50.59-.99-75.89-1.26-13.82-.15-20.19-7.53-20.9-20.56-.81-14.9,9.19-16.87,20.73-16.84"/><path class="cls-3" d="M267.99,693.66c0-46.94.56-79.68-.28-112.38-.33-12.75,3.93-19.24,16.21-22.41,29.54-7.62,55.89-22.44,81.64-38.27,26.41-16.24,44.01-61.66,35.51-91.09-3.67-12.72-12.63-17.23-25.33-16.41-27.09,1.75-54.25,2.69-81.28,5.05-14.42,1.26-17.8-2.9-15.78-17.45,5.53-39.7,4.81-39.77,43.6-40.23,22.8-.27,45.66-2.56,68.25,2.57.59.13,1.23.16,1.84.11,12.83-.88,27.59.57,30.78-16.62,2.03-10.91-12.56-21.63-29.32-21.85-28.4-.38-56.85-.94-85.19.4-17.21.81-19.03-7.11-13.21-19.11,16.7-34.4,35.11-68.26,66-92.08,68.19-52.59,147.82-74.57,232.06-80.75,66.08-4.85,131.96-3.28,195.09,21.61,93.38,36.82,152.73,100.38,169.91,202.57,13.83,82.29,15.7,163.89,8.7,246.87-7,82.99-6.46,166.54-5.23,249.87,1.28,86.04-9.54,170.81-19.82,255.98-6.86,56.82-21.34,110.66-39.07,164.46-16.94,51.39-55.51,80.73-99.51,106.54-49.77,29.2-103.18,38.94-160.34,42.89-94.57,6.53-187.74,1.78-278.97-22.46-125.15-33.26-194.09-116.99-215.08-244.59-8.13-49.42-5.3-98.34-7.37-147.5-.34-8.12,3.06-10.19,10.47-11.31,82.91-12.55,165.83-25.31,249.84-27.27,23.31-.54,46.72,2.34,70.06,4.06,49.46,3.65,98.61-.78,147.8-4.87,7.26-.6,11.59-3.74,13.8-10.07,2.38-6.8-.99-11.84-5.95-16.18-7.14-6.24-15.63-6.13-24.44-5.92-59.21,1.43-118.42,2.69-177.63,3.9-13.58.28-16.45-8.31-15.52-19.66,2.26-27.68,3.84-55.72,11.39-82.38,23.46-82.88,32.07-168.12,43.56-253,4.95-36.57,13.7-72.61,20.16-108.99,1.82-10.25,2.44-20.87,2.23-31.29-.36-18.28-13.77-27.39-31.61-22.72-6.21,1.62-9.52,4.7-9.76,11.39-1.87,50.79-20.15,99.08-23.72,149.46-7.22,101.89-34.94,200.11-51.67,300.28-2.23,13.34-2.67,27.01-3.51,40.55-.55,8.91-4.15,12.93-13.65,13.34-21.57.94-43.1,2.81-64.61,4.67-9.47.82-13.08-2.39-13-12.33.73-83.96-11.73-167.53-8.08-237.38Z"/><path class="cls-1" d="M191.98,457.34c3.69,0,7.47.51,11.06-.08,13.72-2.25,18.81,3.55,21.43,17.15,6.4,33.31,37.63,45.75,66.09,27.14,11.99-7.84,19.25-19.56,18.14-34.19-.92-12.02,2.87-17.35,15.11-16.58,4.25.27,8.59-1.15,12.85-.98,7.01.29,16.37-3.54,20.27,3.52,3.94,7.13-.43,15.71-4.51,22.63-4.74,8.03-11.69,14.09-19.61,19.14-26.66,17.02-56.08,27.77-86.19,36.17-17.19,4.79-33.44,1.77-46.63-13.6-12.02-14-25.13-26.78-32.96-43.98-5.3-11.62-5.56-18.39,10.19-16.44,4.85.6,9.84.09,14.76.1Z"/><path class="cls-4" d="M745.26,406.76c30.12,1.76,60.31,2.78,90.35,5.48,28.7,2.58,36.64,16.51,26.75,43.67-3.77,10.37-7.35,20.81-11.22,31.15-17.65,47.18-52.6,72.89-101.47,80.42-32.86,5.06-65.99,9.72-99.07,2.22-38.78-8.78-70.09-27.91-81.82-68.46-4.52-15.63-17.91-24.26-24.04-38.5-10.97-25.48-8.31-32.45,18.84-38.03,59.92-12.31,120.53-17.51,181.67-17.96Z"/><path class="cls-6" d="M542.23,371.51c-12.26-.28-21.98-4.59-23.3-18.36-1.37-14.33,8.85-15.86,20.03-18.26,70.88-15.22,142.93-17.56,214.93-20.55,12.94-.54,25.63-2.36,38.42-4.3,18.75-2.84,34.91,5.23,34.06,16.54-1.32,17.54-16.69,18.54-28.98,19.57-38.67,3.25-77.5,7.32-116.21,6.79-44.37-.61-86.18,13.66-129.64,17.22-3.06.25-6.09.88-9.3,1.35Z"/><path class="cls-5" d="M599.28,738.28c-15.78-2.13-20.92-11.19-20.52-23.56.42-13.17,10.61-13.55,20.02-12.62,11.98,1.18,22.11,6.63,21.49,20.28-.63,14.04-13.22,13.71-20.99,15.9Z"/><path class="cls-1" d="M693.76,537.48c-54.23,1.15-88.24-25.77-97.75-74.65-1.28-6.57,2.05-7.63,6.47-8.35,14-2.27,28.04-4.21,42.05-6.41,7.92-1.24,9.06,3.41,9.68,9.76.95,9.8,2.01,19.69,4.28,29.25,5.8,24.41,19.18,35.82,40.43,35.56,24.12-.3,42.83-15.4,47.31-38.71,1.28-6.63,2.99-13.85,1.64-20.19-3.93-18.56,4.78-22.5,20.66-20.45,8.55,1.11,17.21,1.32,25.8,2.18,25.72,2.56,26.06,2.74,16.4,27.64-15.25,39.3-45.63,58.04-86.4,61.96-11.05,1.06-22.14,1.75-30.59,2.4Z"/></g></svg>